<svg id="instagram-seeklogo.com" xmlns="http://www.w3.org/2000/svg" width="15.801" height="15.801" viewBox="0 0 15.801 15.801">
  <path id="Trazado_8245" data-name="Trazado 8245" d="M7.9,1.424c2.109,0,2.359.008,3.192.046a4.373,4.373,0,0,1,1.467.272,2.448,2.448,0,0,1,.908.591,2.448,2.448,0,0,1,.591.908,4.372,4.372,0,0,1,.272,1.467c.038.833.046,1.083.046,3.192s-.008,2.359-.046,3.192a4.372,4.372,0,0,1-.272,1.467,2.616,2.616,0,0,1-1.5,1.5,4.371,4.371,0,0,1-1.467.272c-.833.038-1.083.046-3.192.046s-2.359-.008-3.192-.046a4.37,4.37,0,0,1-1.467-.272,2.447,2.447,0,0,1-.908-.591,2.448,2.448,0,0,1-.591-.908,4.372,4.372,0,0,1-.272-1.467c-.038-.833-.046-1.083-.046-3.192s.008-2.359.046-3.192a4.372,4.372,0,0,1,.272-1.467,2.448,2.448,0,0,1,.591-.908,2.448,2.448,0,0,1,.908-.591A4.372,4.372,0,0,1,4.708,1.47c.833-.038,1.083-.046,3.192-.046M7.9,0C5.755,0,5.486.009,4.643.048A5.8,5.8,0,0,0,2.725.415a3.873,3.873,0,0,0-1.4.911,3.873,3.873,0,0,0-.911,1.4A5.8,5.8,0,0,0,.048,4.643C.009,5.486,0,5.755,0,7.9s.009,2.415.048,3.257a5.8,5.8,0,0,0,.367,1.918,3.873,3.873,0,0,0,.911,1.4,3.872,3.872,0,0,0,1.4.911,5.8,5.8,0,0,0,1.918.367c.843.038,1.112.048,3.257.048s2.415-.009,3.257-.048a5.8,5.8,0,0,0,1.918-.367,4.04,4.04,0,0,0,2.311-2.311,5.8,5.8,0,0,0,.367-1.918c.038-.843.048-1.112.048-3.257s-.009-2.415-.048-3.257a5.8,5.8,0,0,0-.367-1.918,3.872,3.872,0,0,0-.911-1.4,3.873,3.873,0,0,0-1.4-.911A5.8,5.8,0,0,0,11.158.048C10.315.009,10.046,0,7.9,0Zm0,3.843A4.057,4.057,0,1,0,11.957,7.9,4.057,4.057,0,0,0,7.9,3.843Zm0,6.69A2.633,2.633,0,1,1,10.534,7.9,2.634,2.634,0,0,1,7.9,10.534Zm5.165-6.851a.948.948,0,1,1-.948-.948A.948.948,0,0,1,13.066,3.683Z" transform="translate(0 0)" fill="#0ef"/>
</svg>
