<svg xmlns="http://www.w3.org/2000/svg" width="13.504" height="13.504" viewBox="0 0 13.504 13.504">
  <path id="linkedin-in-brands_3_" data-name="linkedin-in-brands (3)" d="M3.023,13.514H.223V4.5h2.8ZM1.621,3.268A1.629,1.629,0,1,1,3.243,1.631,1.635,1.635,0,0,1,1.621,3.268ZM13.5,13.514H10.708V9.125c0-1.046-.021-2.387-1.456-2.387C7.8,6.738,7.573,7.874,7.573,9.05v4.464h-2.8V4.5H7.462v1.23H7.5A2.942,2.942,0,0,1,10.15,4.272c2.834,0,3.354,1.866,3.354,4.289v4.953Z" transform="translate(0 -0.01)" fill="#0ef"/>
</svg>
