<svg xmlns="http://www.w3.org/2000/svg" width="16.883" height="13.712" viewBox="0 0 16.883 13.712">
  <path id="twitter-brands_2_" data-name="twitter-brands (2)" d="M15.147,51.5c.011.15.011.3.011.45a9.777,9.777,0,0,1-9.845,9.845A9.778,9.778,0,0,1,0,60.241a7.157,7.157,0,0,0,.836.043,6.929,6.929,0,0,0,4.3-1.478,3.466,3.466,0,0,1-3.235-2.4,4.363,4.363,0,0,0,.653.054,3.659,3.659,0,0,0,.911-.118,3.461,3.461,0,0,1-2.775-3.4V52.9a3.485,3.485,0,0,0,1.564.439,3.465,3.465,0,0,1-1.071-4.628,9.835,9.835,0,0,0,7.134,3.621,3.906,3.906,0,0,1-.086-.793,3.463,3.463,0,0,1,5.988-2.367,6.812,6.812,0,0,0,2.2-.836,3.451,3.451,0,0,1-1.521,1.907,6.936,6.936,0,0,0,1.992-.536A7.438,7.438,0,0,1,15.147,51.5Z" transform="translate(0 -48.082)" fill="#0ef"/>
</svg>
